<?xml version="1.0" encoding="iso-8859-1"?>
<!-- Generator: Adobe Illustrator 19.0.0, SVG Export Plug-In . SVG Version: 6.00 Build 0)  -->
<svg xmlns="http://www.w3.org/2000/svg" xmlns:xlink="http://www.w3.org/1999/xlink" version="1.1" id="Capa_1" x="0px" y="0px" viewBox="0 0 512 512" style="enable-background:new 0 0 512 512;" xml:space="preserve" width="512px" height="512px">
<g>
	<g>
		<path d="M512,241V31H0v210h31v210H0v30h91v-30H61V241h60v180h201.213L391,352.213V241h61v210h-31v30h91v-30h-30V241H512z     M361,339.787L309.787,391H301v-60h60V339.787z M361,301h-90v90H151V181h210V301z M391,211v-30h30v-30H91v30h30v30H30V61h452v150    H391z" fill="#006DF0"/>
	</g>
</g>
<g>
	<g>
		<rect x="61" y="91" width="30" height="30" fill="#006DF0"/>
	</g>
</g>
<g>
	<g>
		<rect x="121" y="91" width="30" height="30" fill="#006DF0"/>
	</g>
</g>
<g>
</g>
<g>
</g>
<g>
</g>
<g>
</g>
<g>
</g>
<g>
</g>
<g>
</g>
<g>
</g>
<g>
</g>
<g>
</g>
<g>
</g>
<g>
</g>
<g>
</g>
<g>
</g>
<g>
</g>
</svg>
