<?xml version="1.0" encoding="UTF-8" standalone="no"?>
<svg
   xmlns:dc="http://purl.org/dc/elements/1.1/"
   xmlns:cc="http://creativecommons.org/ns#"
   xmlns:rdf="http://www.w3.org/1999/02/22-rdf-syntax-ns#"
   xmlns:svg="http://www.w3.org/2000/svg"
   xmlns="http://www.w3.org/2000/svg"
   id="svg1709"
   version="1.1"
   viewBox="0 0 119.49934 32.783531"
   height="32.783531mm"
   width="119.49934mm">
  <defs
     id="defs1703" />
  <metadata
     id="metadata1706">
    <rdf:RDF>
      <cc:Work
         rdf:about="">
        <dc:format>image/svg+xml</dc:format>
        <dc:type
           rdf:resource="http://purl.org/dc/dcmitype/StillImage" />
        <dc:title></dc:title>
      </cc:Work>
    </rdf:RDF>
  </metadata>
  <g
     transform="translate(-130.75033,60.326288)"
     id="layer1">
    <g
       id="g1672"
       transform="matrix(0.35277777,0,0,0.35277777,116.5965,-70.35565)">
      <path
         id="path407"
         d="m 267.56641,79.253906 c 4.52734,3.515625 7.20312,7.832032 7.20312,12.507813 0,11.777341 -16.95312,21.328121 -37.86719,21.328121 -20.91406,0 -37.86718,-9.55078 -37.86718,-21.328121 0,-4.671875 2.67578,-8.992188 7.20312,-12.507813 -7.49219,4.46875 -12.10937,10.566406 -12.10937,17.292969 0,13.703125 19.14843,24.812505 42.77343,24.812505 23.625,0 42.77735,-11.10938 42.77735,-24.812505 0,-6.726563 -4.625,-12.824219 -12.11328,-17.292969"
         style="fill:#de2e30;fill-opacity:1;fill-rule:nonzero;stroke:none" />
      <path
         id="path409"
         d="m 243.81641,65.242188 h 22.21875 l -17.67969,13.625 7.13672,21.410152 -18.48828,-13.136715 -19.625,12.8125 7.625,-21.167969 c 0,0 -15.08204,-7.539062 -16.70704,-16.621094 0,0 5.35157,5.027344 8.51563,6.324219 3.16406,1.296875 9.08203,5.027344 18,7.460938 v -1.21875 c 0,0 -10.69922,-3.648438 -15.64844,-6.972657 -4.94531,-3.324218 -11.10937,-8.59375 -11.92187,-15.648437 0.082,0.324219 6.32812,7.054687 12.0039,9.808594 5.67578,2.757812 12.48828,5.679687 16.46094,6.734375 v -1.542969 c 0,0 -10.30078,-3.890625 -16.37891,-7.214844 -6.08203,-3.324219 -9.73046,-6.734375 -12.57031,-16.058593 0,0 6,6.730468 12.73047,9.730468 6.73047,3 11.75781,6 16.13672,7.460938 v -1.867188 c 0,0 -11.26953,-4.703125 -15.89453,-7.214844 -4.6211,-2.515624 -12.56641,-11.839843 -12.89453,-15.730468 0,0 7.70703,7.296875 13.38281,9.648437 5.67578,2.351563 9.40625,4.460938 15.40625,6.488281 v -1.785156 c 0,0 -10.21484,-3.40625 -15.24609,-6.40625 -5.02735,-3 -12.08204,-10.378906 -12.72657,-15.730468 -0.082,0.242187 5.67188,5.027343 13.37891,8.351562 7.69922,3.324219 16.21484,5.351562 17.75781,11.675781 1.53906,6.328125 5.02735,16.785157 5.02735,16.785157"
         style="fill:#0078ba;fill-opacity:1;fill-rule:nonzero;stroke:none" />
      <path
         id="path411"
         d="M 68.519531,109.58203 H 65.65625 l -0.488281,-4.98047 c -2.769531,3.51172 -6.535157,5.26953 -11.300781,5.26953 -4.917969,0 -8.460938,-2.05859 -10.628907,-6.17968 -1.402343,-2.6875 -2.105469,-5.804691 -2.105469,-9.34766 0,-1.300781 0.144532,-2.960938 0.429688,-4.984375 0.625,-3.734375 1.804688,-7.234375 3.535156,-10.5 1.730469,-3.261719 3.984375,-5.902344 6.765625,-7.910156 2.78125,-2.007813 5.925781,-3.011719 9.441407,-3.011719 3.554687,0 6.332031,1.023438 8.328124,3.070312 1.992188,2.042969 3.15625,4.929688 3.484376,8.648438 L 68.4375,80.832031 c -0.08203,-2.585937 -0.847656,-4.667969 -2.300781,-6.25 -1.449219,-1.578125 -3.367188,-2.367187 -5.753907,-2.367187 -3.867187,0 -6.914062,1.664062 -9.132812,4.992187 -2.222656,3.332031 -3.71875,7.292969 -4.496094,11.886719 -0.285156,1.890625 -0.429687,3.578125 -0.429687,5.070312 0,2.128907 0.253906,4.03125 0.757812,5.714844 0.597657,1.757814 1.597657,3.164064 3.003907,4.222654 1.402343,1.05469 3.023437,1.58203 4.863281,1.58203 2.886719,0 5.34375,-0.95703 7.367187,-2.86718 2.023438,-1.91407 3.277344,-4.433598 3.769532,-7.56641 l 0.410156,-2.257812 h -9.359375 l 0.652343,-4.277344 h 14.164063 z m 0,0"
         style="fill:#de2e30;fill-opacity:1;fill-rule:nonzero;stroke:none" />
      <path
         id="path413"
         d="m 61.304688,68.953125 c -3.28125,0 -6.257813,0.949219 -8.847657,2.820313 -2.640625,1.90625 -4.8125,4.449218 -6.460937,7.558593 -1.671875,3.15625 -2.828125,6.585938 -3.433594,10.195313 -0.273438,1.941406 -0.414062,3.570312 -0.414062,4.816406 0,3.359375 0.667968,6.34766 1.988281,8.87891 1.992187,3.78906 5.175781,5.63281 9.730469,5.63281 4.480468,0 7.914062,-1.59766 10.503906,-4.88281 l 1.558594,-1.98438 0.644531,6.58203 H 67.65625 L 70.757812,89.730469 H 58.660156 l -0.34375,2.246093 h 9.390625 l -0.625,3.457032 C 66.5625,98.75 65.191406,101.49219 63.011719,103.55078 c -2.207031,2.08985 -4.921875,3.14844 -8.0625,3.14844 -2.058594,0 -3.898438,-0.60156 -5.476563,-1.78906 -1.5625,-1.17578 -2.6875,-2.75782 -3.351562,-4.70313 l -0.01172,-0.0352 C 45.578125,98.402344 45.3125,96.382812 45.3125,94.164062 c 0,-1.535156 0.144531,-3.292968 0.4375,-5.222656 0.800781,-4.730468 2.367188,-8.863281 4.65625,-12.296875 2.410156,-3.613281 5.765625,-5.445312 9.976562,-5.445312 2.671876,0 4.855469,0.910156 6.5,2.699219 1.371094,1.492187 2.199219,3.390624 2.472657,5.65625 l 2.65625,-0.667969 C 71.617188,75.832031 70.570312,73.421875 68.90625,71.714844 67.089844,69.855469 64.605469,68.953125 61.304688,68.953125 m -7.4375,41.933595 c -5.304688,0 -9.179688,-2.26172 -11.527344,-6.72266 -1.472656,-2.82422 -2.21875,-6.128904 -2.21875,-9.82031 0,-1.34375 0.148437,-3.066406 0.4375,-5.125 0.644531,-3.851562 1.867187,-7.488281 3.644531,-10.832031 C 45.996094,74.996094 48.375,72.222656 51.269531,70.128906 54.210938,68 57.589844,66.925781 61.304688,66.925781 c 3.820312,0 6.867187,1.132813 9.050781,3.371094 2.15625,2.210937 3.425781,5.328125 3.769531,9.269531 l 0.07813,0.863282 -6.742187,1.691406 -0.03906,-1.257813 c -0.07422,-2.355469 -0.738281,-4.183593 -2.03125,-5.59375 -1.261719,-1.375 -2.898437,-2.042969 -5.007813,-2.042969 -3.539062,0 -6.25,1.488282 -8.289062,4.542969 -2.128906,3.195313 -3.589844,7.0625 -4.339844,11.492188 -0.273437,1.8125 -0.417968,3.46875 -0.417968,4.902343 0,2.011719 0.242187,3.828126 0.710937,5.410157 0.535156,1.562501 1.402344,2.777341 2.648437,3.714841 1.230469,0.92969 2.625,1.37891 4.253907,1.37891 2.644531,0 4.824219,-0.84375 6.667969,-2.58984 1.847656,-1.7461 3.015624,-4.093755 3.464843,-6.98438 l 0.199219,-1.085938 h -9.328125 l 0.964844,-6.304687 h 16.226562 l -3.765625,22.894535 h -4.640625 l -0.359375,-3.63282 c -2.765625,2.60157 -6.292968,3.92188 -10.511718,3.92188"
         style="fill:#de020a;fill-opacity:1;fill-rule:nonzero;stroke:none" />
      <path
         id="path415"
         d="M 77.359375,109.31641 83.980469,68.582031 H 88.25 l -6.621094,40.734379 z m 0,0"
         style="fill:#de2e30;fill-opacity:1;fill-rule:nonzero;stroke:none" />
      <path
         id="path417"
         d="m 78.550781,108.30469 h 2.214844 L 87.058594,69.59375 H 84.84375 Z m 3.941407,2.02734 h -6.324219 l 6.949219,-42.765624 h 6.328124 z m 0,0"
         style="fill:#de020a;fill-opacity:1;fill-rule:nonzero;stroke:none" />
      <path
         id="path419"
         d="m 109.39453,101.69531 c 1.23828,-2.082029 2.10547,-4.679685 2.59375,-7.796872 0.21875,-1.828126 0.32813,-3.164063 0.32813,-4.007813 0,-1.667969 -0.22266,-3.054687 -0.67188,-4.164063 -1.21484,-2.421874 -3.05469,-3.632812 -5.51953,-3.632812 -2.84766,0 -5.16406,1.425781 -6.949219,4.273438 -1.238281,1.847656 -2.132812,4.359374 -2.675781,7.53125 -0.21875,1.804687 -0.328125,3.25 -0.328125,4.34375 0,1.550781 0.191406,2.886722 0.574219,4.007812 0.378906,1.15234 1.074218,2.07422 2.082031,2.76953 1.011719,0.69531 2.125005,1.03906 3.351565,1.03906 2.92969,0 5.33594,-1.45312 7.21484,-4.36328 M 91.71875,93.898438 c 0.707031,-4.371094 2.433594,-8.050782 5.179688,-11.039063 2.746093,-2.992187 6.125002,-4.488281 10.148442,-4.488281 3.30859,0 5.79296,1.132812 7.45703,3.398437 1.66015,2.269531 2.49218,5.160157 2.49218,8.675781 0,0.738282 -0.10546,1.949219 -0.32421,3.632813 -0.76563,4.472656 -2.52344,8.222655 -5.27344,11.250005 -2.75391,3.03125 -6.13281,4.54296 -10.13672,4.54296 -3.296876,0 -5.765626,-1.11718 -7.410158,-3.35546 -1.640624,-2.23829 -2.460937,-5.11329 -2.460937,-8.628911 0,-1.460938 0.109375,-2.789063 0.328125,-3.988281"
         style="fill:#de2e30;fill-opacity:1;fill-rule:nonzero;stroke:none" />
      <path
         id="path421"
         d="m 97.503906,94.046875 c -0.210937,1.742187 -0.316406,3.15625 -0.316406,4.195313 0,1.429687 0.171875,2.671872 0.515625,3.679692 0.316406,0.95312 0.871094,1.6914 1.703125,2.26562 0.83984,0.57813 1.75,0.85938 2.77344,0.85938 2.58203,0 4.66015,-1.26954 6.35156,-3.88672 1.16016,-1.953129 1.98828,-4.44141 2.45313,-7.398441 0.21093,-1.777344 0.32031,-3.078125 0.32031,-3.871094 0,-1.511719 -0.19922,-2.773437 -0.58594,-3.746094 -1.03516,-2.042969 -2.53906,-3.039062 -4.59375,-3.039062 -2.49609,0 -4.48828,1.246093 -6.08984,3.800781 l -0.0156,0.02734 c -1.152342,1.714844 -1.996092,4.109375 -2.515624,7.113281 m 4.675784,13.027349 c -1.42969,0 -2.750002,-0.41016 -3.925784,-1.21875 -1.191406,-0.82031 -2.019531,-1.92578 -2.472656,-3.28516 -0.414062,-1.21484 -0.621094,-2.671876 -0.621094,-4.328126 0,-1.140626 0.109375,-2.601563 0.332032,-4.464844 L 95.5,93.730469 c 0.566406,-3.292969 1.515625,-5.957031 2.824219,-7.914063 1.976561,-3.144531 4.597661,-4.738281 7.800781,-4.738281 2.86719,0 5.03125,1.410156 6.42578,4.195313 l 0.0312,0.07031 c 0.4961,1.226562 0.75,2.753906 0.75,4.546875 0,0.886719 -0.10937,2.238281 -0.33594,4.128906 l -0.004,0.03906 c -0.50781,3.226562 -1.42578,5.972661 -2.72656,8.156251 l -0.0195,0.0312 c -2.07031,3.20313 -4.78125,4.82813 -8.0664,4.82813 m 4.86328,-27.687506 c -3.75391,0 -6.82813,1.359375 -9.398439,4.15625 -2.597656,2.828125 -4.253906,6.367187 -4.925781,10.519531 -0.210938,1.148438 -0.3125,2.429688 -0.3125,3.824219 0,3.277346 0.761719,5.980476 2.265625,8.027346 1.449219,1.98047 3.605469,2.94141 6.589845,2.94141 3.73828,0 6.80859,-1.375 9.38672,-4.20703 2.60156,-2.86328 4.28906,-6.468757 5.01953,-10.722664 0.20703,-1.621093 0.31641,-2.792969 0.31641,-3.480469 0,-3.277343 -0.77344,-5.996093 -2.29688,-8.074218 -1.47266,-2.007813 -3.64844,-2.984375 -6.64453,-2.984375 m -5.78125,31.499996 c -3.625001,0 -6.390626,-1.26953 -8.226564,-3.77343 -1.765625,-2.40234 -2.660156,-5.50782 -2.660156,-9.226566 0,-1.515625 0.117188,-2.917969 0.34375,-4.167969 0.734375,-4.53125 2.5625,-8.421875 5.433594,-11.546875 2.929687,-3.195313 6.597656,-4.8125 10.890626,-4.8125 3.63672,0 6.42187,1.28125 8.27734,3.8125 1.78516,2.433594 2.69141,5.554687 2.69141,9.273437 0,0.789063 -0.10938,2.019532 -0.33594,3.761719 l -0.008,0.03906 c -0.79297,4.648437 -2.64844,8.609374 -5.51953,11.765624 -2.94141,3.23437 -6.60156,4.875 -10.88672,4.875"
         style="fill:#de020a;fill-opacity:1;fill-rule:nonzero;stroke:none" />
      <path
         id="path423"
         d="m 126.46094,96.714844 c -0.10938,0.941406 -0.16406,1.667968 -0.16406,2.167968 0,1.507818 0.22265,2.777348 0.67187,3.812498 1.22656,2.36328 3.06641,3.54297 5.51953,3.54297 2.57422,0 4.62891,-1.17578 6.16016,-3.52344 1.53515,-2.34765 2.55078,-5.046871 3.05468,-8.105465 0.21875,-1.683594 0.32813,-3.070313 0.32813,-4.164063 0,-5.628906 -1.86719,-8.441406 -5.59766,-8.441406 -1.40625,0 -2.75781,0.445313 -4.05859,1.339844 -1.30078,0.894531 -2.40234,2.066406 -3.30078,3.523438 -0.89844,1.453124 -1.49219,2.921874 -1.77734,4.394531 z m -4.27344,12.601566 h -2.08594 l 6.625,-40.734379 h 4.26953 l -2.51562,15.503907 h 0.24609 c 2.45313,-3.808594 5.46485,-5.714844 9.03516,-5.714844 1.6875,0 3.22265,0.449218 4.60547,1.339844 1.38281,0.894531 2.44531,2.078124 3.17968,3.558593 0.84375,1.917969 1.26563,4.125 1.26563,6.621094 0,0.796875 -0.11328,2.105469 -0.34766,3.921875 -0.42187,2.671875 -1.25,5.246094 -2.49218,7.71875 -1.23829,2.47266 -2.85938,4.48047 -4.86329,6.02344 -2.0039,1.54297 -4.29296,2.3164 -6.86718,2.3164 -1.8125,0 -3.38282,-0.51562 -4.71094,-1.55078 -1.32812,-1.03515 -2.32422,-2.42187 -2.99219,-4.16406 z m 0,0"
         style="fill:#de2e30;fill-opacity:1;fill-rule:nonzero;stroke:none" />
      <path
         id="path425"
         d="m 127.88672,102.25781 c 1.04297,1.9961 2.55078,2.96485 4.60156,2.96485 2.23047,0 3.96875,-1 5.3125,-3.0625 1.44531,-2.210941 2.42188,-4.800785 2.90234,-7.699222 0.20704,-1.628907 0.3125,-2.980469 0.3125,-4.015626 0,-6.65625 -2.61718,-7.425781 -4.58203,-7.425781 -1.20703,0 -2.34375,0.378907 -3.48437,1.160157 -1.17969,0.808593 -2.19141,1.894531 -3.01172,3.21875 -0.82813,1.339843 -1.37891,2.699218 -1.64063,4.039062 l -0.83203,5.410156 c -0.10156,0.890625 -0.15625,1.574219 -0.15625,2.035156 0,1.343748 0.19532,2.480468 0.57813,3.374998 m -3.26563,-0.72656 0.86329,2.26172 c 0.59765,1.55859 1.49609,2.8125 2.67187,3.72656 1.15625,0.90235 2.49219,1.33594 4.08594,1.33594 2.36718,0 4.41015,-0.6875 6.24609,-2.10156 1.87109,-1.44532 3.41016,-3.35157 4.57813,-5.67969 1.18359,-2.359376 1.99218,-4.851564 2.39453,-7.406251 0.22656,-1.757813 0.33984,-3.027344 0.33984,-3.777344 0,-2.332031 -0.39453,-4.414063 -1.17187,-6.191406 -0.64844,-1.296875 -1.59375,-2.351563 -2.8125,-3.136719 -1.22657,-0.792969 -2.55469,-1.175781 -4.05469,-1.175781 -3.0586,0 -5.6211,1.539062 -7.8125,4.695312 0.57031,-0.589843 1.1875,-1.117187 1.85156,-1.574219 1.46484,-1.007812 3.02734,-1.519531 4.63281,-1.519531 3.01563,0 6.61328,1.640625 6.61328,9.457031 0,1.144532 -0.11328,2.546876 -0.33593,4.292969 l -0.004,0.03516 c -0.52734,3.183593 -1.60547,6.042969 -3.20703,8.496089 -1.72656,2.64063 -4.08594,3.98438 -7.01172,3.98438 -2.85156,0 -5.01172,-1.37891 -6.41797,-4.09375 l -0.0312,-0.0625 c -0.5,-1.15625 -0.75781,-2.57422 -0.75781,-4.214845 0,-0.546874 0.0547,-1.296874 0.17188,-2.285156 l 0.004,-0.03906 0.84375,-5.488282 c 0.3086,-1.589843 0.94922,-3.183593 1.91016,-4.734374 0.26953,-0.433594 0.55468,-0.847657 0.85937,-1.234376 h -1.77734 l 2.51172,-15.507812 H 127.586 l -6.28906,38.710945 h 0.23828 z m 7.6211,9.35547 c -2.03516,0 -3.82813,-0.59375 -5.33594,-1.76563 -0.91406,-0.71484 -1.69531,-1.58593 -2.32812,-2.60546 l -1.73829,3.8164 h -3.92968 l 6.95312,-42.765624 h 6.32422 l -2.14063,13.207032 c 2.21875,-2.269532 4.80079,-3.417969 7.71485,-3.417969 1.8789,0 3.61328,0.507812 5.15625,1.503906 1.53515,0.992187 2.72265,2.320313 3.53515,3.957031 l 0.0195,0.04297 c 0.89843,2.039063 1.35546,4.40625 1.35546,7.03125 0,0.847656 -0.11718,2.171875 -0.35546,4.046875 l -0.004,0.03125 c -0.4375,2.765625 -1.30859,5.460938 -2.58984,8.015629 -1.30079,2.60156 -3.03516,4.74609 -5.15235,6.375 -2.17187,1.67578 -4.6914,2.52734 -7.48437,2.52734"
         style="fill:#de020a;fill-opacity:1;fill-rule:nonzero;stroke:none" />
      <path
         id="path427"
         d="m 169.22656,94.167969 h -3.51562 c -7.46485,0 -11.57422,2.265625 -12.32032,6.796871 0,3.57422 1.69922,5.36329 5.10938,5.36329 2.55859,0 4.82812,-1.01563 6.80469,-3.04688 1.97265,-2.03125 3.19531,-4.433594 3.65625,-7.210938 z m 0.57422,-3.546875 0.26172,-1.261719 c 0.10937,-0.546875 0.16406,-1.308594 0.16406,-2.28125 0,-1.847656 -0.47265,-3.167969 -1.41797,-3.964844 -0.94922,-0.796875 -2.48437,-1.199219 -4.60937,-1.199219 -4.39844,0 -7.22266,1.816407 -8.46094,5.453126 l -3.92187,-0.820313 c 0.55859,-1.921875 1.54296,-3.492187 2.96093,-4.71875 1.41797,-1.226563 3.04297,-2.109375 4.875,-2.648437 1.83203,-0.539063 3.65625,-0.808594 5.46875,-0.808594 4.12891,0 6.82813,0.96875 8.10938,2.902344 0.84375,1.257812 1.26953,2.855468 1.26953,4.808593 0,0.75 -0.19922,2.449219 -0.59375,5.09375 l -1.92188,11.785159 c -0.23046,1.46094 -0.34765,3.58203 -0.34765,6.35547 h -4.25 l 0.32812,-5.625 c -2.50781,4.12109 -6.07812,6.17968 -10.70703,6.17968 -2.4414,0 -4.44531,-0.64062 -6.01953,-1.91406 -1.57422,-1.28125 -2.35937,-3.08984 -2.35937,-5.4414 0,-0.35157 0.0508,-0.95704 0.16406,-1.81641 0.30859,-1.769532 1.05859,-3.421876 2.24609,-4.94922 1.1875,-1.527344 2.61719,-2.664062 4.29297,-3.402344 2.35547,-1.148437 6.00781,-1.726562 10.95313,-1.726562 z m 0,0"
         style="fill:#de2e30;fill-opacity:1;fill-rule:nonzero;stroke:none" />
      <path
         id="path429"
         d="m 154.40234,101.05078 c 0.0234,2.94531 1.28907,4.26172 4.09375,4.26172 2.30078,0 4.28516,-0.89453 6.08203,-2.73828 1.81641,-1.87109 2.95704,-4.117189 3.38282,-6.671876 l 0.10156,-0.722656 h -2.35156 c -6.91016,0 -10.60938,1.921874 -11.3086,5.871092 m -4.60937,-0.19531 c -0.125,0.98828 -0.15235,1.44922 -0.15235,1.66016 0,2.04687 0.64844,3.5664 1.98438,4.65234 1.40234,1.13672 3.16016,1.6875 5.38281,1.6875 4.28906,0 7.51172,-1.86328 9.83985,-5.69141 l 0.21093,-0.34375 c -0.32031,0.39844 -0.66015,0.79297 -1.02734,1.16797 -2.16406,2.22656 -4.69922,3.35156 -7.53516,3.35156 -3.94922,0 -6.12109,-2.26171 -6.12109,-6.375 l 0.0117,-0.16406 c 0.83984,-5.074218 5.32422,-7.648436 13.32422,-7.648436 h 4.68359 l -0.42969,3.058594 c -0.21093,1.273437 -0.57031,2.472656 -1.07812,3.601562 l 0.0742,-0.125 -0.5,8.61719 h 2.16797 c 0.0273,-2.35938 0.14453,-4.16406 0.35546,-5.50391 l 1.92188,-11.789061 c 0.48047,-3.203125 0.57812,-4.449219 0.57812,-4.933594 0,-1.734375 -0.36718,-3.160156 -1.09375,-4.238281 -1.07812,-1.628906 -3.52343,-2.453125 -7.26953,-2.453125 -1.70703,0 -3.45312,0.257812 -5.18359,0.765625 -1.68359,0.496094 -3.19531,1.316406 -4.49609,2.441406 -0.9961,0.863281 -1.76172,1.933594 -2.28907,3.195312 l 1.95313,0.40625 c 1.52344,-3.511718 4.57812,-5.292968 9.09375,-5.292968 2.39453,0 4.11719,0.46875 5.26172,1.433594 1.18359,0.996093 1.78125,2.589843 1.78125,4.742187 0,1.050781 -0.0586,1.859375 -0.1836,2.476563 l -0.4375,2.082031 h -4.33593 c -4.76563,0 -8.30469,0.542969 -10.51172,1.621093 l -0.0352,0.01953 c -1.51172,0.667968 -2.82422,1.707031 -3.89844,3.09375 -1.07422,1.382812 -1.76172,2.890625 -2.04687,4.484378 m 7.21484,10.03125 c -2.66797,0 -4.91015,-0.72266 -6.66015,-2.14453 -1.8125,-1.47266 -2.73438,-3.56641 -2.73438,-6.22656 0,-0.40235 0.0547,-1.03907 0.17188,-1.94532 l 0.008,-0.0469 c 0.33984,-1.925786 1.16406,-3.742192 2.44531,-5.394536 1.28125,-1.652344 2.84766,-2.894531 4.66406,-3.699218 2.51953,-1.226563 6.2461,-1.820313 11.38282,-1.820313 h 2.6914 l 0.0977,-0.460937 c 0.0898,-0.46875 0.14062,-1.167969 0.14062,-2.070313 0,-1.527344 -0.35547,-2.597656 -1.05859,-3.191406 -0.75391,-0.632813 -2.08594,-0.957031 -3.95703,-0.957031 -3.95313,0 -6.40625,1.558593 -7.5,4.761718 l -0.28906,0.847656 -5.875,-1.222656 0.30859,-1.054687 c 0.60937,-2.101563 1.71094,-3.851563 3.26953,-5.199219 1.51953,-1.316406 3.28906,-2.277344 5.25391,-2.855469 1.91797,-0.5625 3.85156,-0.847656 5.7539,-0.847656 4.46875,0 7.48047,1.128906 8.95703,3.355469 0.94922,1.414062 1.4375,3.222656 1.4375,5.363281 0,0.8125 -0.19921,2.527344 -0.60546,5.246094 l -1.92579,11.796873 c -0.21875,1.39844 -0.33203,3.48438 -0.33203,6.19532 v 1.01562 h -6.33984 l 0.19531,-3.38281 c -2.48828,2.61328 -5.67187,3.9375 -9.5,3.9375"
         style="fill:#de020a;fill-opacity:1;fill-rule:nonzero;stroke:none" />
      <path
         id="path431"
         d="m 178.42187,109.31641 6.6211,-40.734379 h 4.27344 l -6.6211,40.734379 z m 0,0"
         style="fill:#de2e30;fill-opacity:1;fill-rule:nonzero;stroke:none" />
      <path
         id="path433"
         d="m 179.61328,108.30469 h 2.21875 L 188.125,69.59375 h -2.21875 z m 3.94141,2.02734 h -6.32422 l 6.95312,-42.765624 h 6.32422 z m 0,0"
         style="fill:#de020a;fill-opacity:1;fill-rule:nonzero;stroke:none" />
      <path
         id="path435"
         d="m 317.14062,109.58203 h -2.85937 l -0.49219,-4.98047 c -2.76562,3.51172 -6.53125,5.26953 -11.30078,5.26953 -4.91797,0 -8.46094,-2.05859 -10.62891,-6.17968 -1.40234,-2.6875 -2.10156,-5.804691 -2.10156,-9.34766 0,-1.300781 0.14063,-2.960938 0.42969,-4.984375 0.625,-3.734375 1.80469,-7.234375 3.53516,-10.5 1.72656,-3.261719 3.98437,-5.902344 6.76171,-7.910156 2.78125,-2.007813 5.92579,-3.011719 9.44141,-3.011719 3.55859,0 6.33203,1.023438 8.32813,3.070312 1.99609,2.042969 3.16015,4.929688 3.48437,8.648438 l -4.67969,1.175781 c -0.082,-2.585937 -0.84765,-4.667969 -2.29687,-6.25 -1.45313,-1.578125 -3.3711,-2.367187 -5.75391,-2.367187 -3.87109,0 -6.91406,1.664062 -9.13672,4.992187 -2.21875,3.332031 -3.71875,7.292969 -4.49218,11.886719 -0.28907,1.890625 -0.42969,3.578125 -0.42969,5.070312 0,2.128907 0.2539,4.03125 0.7539,5.714844 0.60157,1.757814 1.60157,3.164064 3.00391,4.222654 1.40625,1.05469 3.02734,1.58203 4.86719,1.58203 2.88672,0 5.33984,-0.95703 7.36328,-2.86718 2.02344,-1.91407 3.28125,-4.433598 3.77344,-7.56641 l 0.40625,-2.257812 h -9.35938 l 0.65235,-4.277344 h 14.16406 z m 0,0"
         style="fill:#de2e30;fill-opacity:1;fill-rule:nonzero;stroke:none" />
      <path
         id="path437"
         d="m 309.92578,68.953125 c -3.27734,0 -6.25781,0.949219 -8.84766,2.820313 -2.64062,1.90625 -4.8125,4.453124 -6.46093,7.558593 -1.67188,3.15625 -2.82813,6.585938 -3.42969,10.195313 -0.27344,1.9375 -0.41797,3.566406 -0.41797,4.816406 0,3.363281 0.67188,6.34766 1.99219,8.87891 1.99219,3.78906 5.17578,5.63281 9.72656,5.63281 4.48047,0 7.91797,-1.59766 10.50391,-4.88281 l 1.55859,-1.98438 0.64844,6.58203 h 1.08203 l 3.09766,-18.839841 h -12.09766 l -0.34375,2.246093 h 9.39453 l -0.625,3.457032 c -0.51953,3.316406 -1.89062,6.058596 -4.07422,8.117186 -2.20703,2.08985 -4.91797,3.14844 -8.05859,3.14844 -2.0586,0 -3.90235,-0.60156 -5.47656,-1.78906 -1.5625,-1.17578 -2.69141,-2.75782 -3.35547,-4.70313 l -0.008,-0.0352 c -0.53125,-1.773442 -0.80078,-3.792974 -0.80078,-6.007818 0,-1.539062 0.14844,-3.296874 0.44141,-5.222656 0.79687,-4.730468 2.36328,-8.863281 4.65234,-12.296875 2.41407,-3.613281 5.76953,-5.445312 9.98047,-5.445312 2.66797,0 4.85547,0.90625 6.4961,2.699219 1.37109,1.492187 2.20312,3.390624 2.47656,5.65625 l 2.65625,-0.667969 c -0.39844,-3.054688 -1.44141,-5.464844 -3.10938,-7.171875 -1.8125,-1.859375 -4.30078,-2.761719 -7.60156,-2.761719 m -7.4375,41.933595 c -5.30078,0 -9.17969,-2.26172 -11.52344,-6.72266 -1.47656,-2.82422 -2.22265,-6.128904 -2.22265,-9.82031 0,-1.34375 0.14843,-3.070312 0.4414,-5.128906 0.64063,-3.847656 1.86719,-7.484375 3.64063,-10.828125 1.79297,-3.386719 4.17187,-6.164063 7.0664,-8.257813 2.94532,-2.128906 6.32032,-3.203125 10.03516,-3.203125 3.82422,0 6.86719,1.132813 9.05469,3.371094 2.15234,2.210937 3.42187,5.328125 3.76953,9.269531 l 0.0742,0.863282 -6.73828,1.691406 -0.0391,-1.257813 c -0.0781,-2.355469 -0.73828,-4.183593 -2.03125,-5.59375 -1.26562,-1.375 -2.90234,-2.042969 -5.00781,-2.042969 -3.53906,0 -6.2539,1.488282 -8.29297,4.542969 -2.1289,3.199219 -3.58984,7.0625 -4.33984,11.492188 -0.27344,1.8125 -0.41406,3.464843 -0.41406,4.902343 0,2.011719 0.23828,3.828126 0.71093,5.410157 0.53516,1.562501 1.40235,2.777341 2.64454,3.714841 1.23437,0.92969 2.625,1.37891 4.25781,1.37891 2.64062,0 4.82422,-0.84375 6.66797,-2.58984 1.84765,-1.7461 3.01172,-4.093755 3.46484,-6.98438 l 0.19922,-1.085938 h -9.33203 l 0.96484,-6.304687 h 16.23047 l -3.76562,22.894535 h -4.64454 l -0.35546,-3.63282 c -2.76954,2.60157 -6.29688,3.92188 -10.51563,3.92188"
         style="fill:#de020a;fill-opacity:1;fill-rule:nonzero;stroke:none" />
      <path
         id="path439"
         d="m 344.47266,94.167969 h -3.51563 c -7.46484,0 -11.57422,2.265625 -12.32422,6.796871 0,3.57422 1.70313,5.36329 5.10938,5.36329 2.5625,0 4.83203,-1.01563 6.80468,-3.04688 1.97657,-2.03125 3.19532,-4.433594 3.66016,-7.210938 z m 0.57031,-3.546875 0.26562,-1.261719 c 0.10938,-0.546875 0.16407,-1.308594 0.16407,-2.28125 0,-1.847656 -0.47266,-3.167969 -1.42188,-3.964844 -0.94531,-0.796875 -2.48047,-1.199219 -4.60547,-1.199219 -4.40234,0 -7.21875,1.816407 -8.46094,5.453126 l -3.92187,-0.820313 c 0.55469,-1.921875 1.54297,-3.492187 2.96094,-4.71875 1.41797,-1.226563 3.04297,-2.109375 4.875,-2.648437 1.83203,-0.539063 3.65234,-0.808594 5.46484,-0.808594 4.12891,0 6.83203,0.96875 8.11719,2.902344 0.84375,1.257812 1.26172,2.855468 1.26172,4.808593 0,0.75 -0.19532,2.449219 -0.58985,5.09375 l -1.92187,11.785159 c -0.23438,1.46094 -0.34766,3.58203 -0.34766,6.35547 h -4.25 l 0.32813,-5.625 c -2.50782,4.12109 -6.07813,6.17968 -10.71094,6.17968 -2.4375,0 -4.44531,-0.64062 -6.01563,-1.91406 -1.57812,-1.28125 -2.36328,-3.08984 -2.36328,-5.4414 0,-0.35157 0.0547,-0.95704 0.16407,-1.81641 0.3125,-1.769532 1.0625,-3.421876 2.25,-4.94922 1.18359,-1.527344 2.61718,-2.664062 4.28906,-3.402344 2.35937,-1.148437 6.00781,-1.726562 10.95703,-1.726562 z m 0,0"
         style="fill:#de2e30;fill-opacity:1;fill-rule:nonzero;stroke:none" />
      <path
         id="path441"
         d="m 329.64844,101.05078 c 0.0234,2.94531 1.28906,4.26172 4.09375,4.26172 2.29687,0 4.28515,-0.89453 6.07812,-2.73828 1.82031,-1.87109 2.96094,-4.117189 3.38672,-6.671876 l 0.0977,-0.722656 h -2.34766 c -6.91016,0 -10.60937,1.921874 -11.30859,5.871092 m -4.60938,-0.19922 c -0.125,1 -0.15625,1.45703 -0.15625,1.66407 0,2.04687 0.65235,3.5664 1.98828,4.65234 1.40235,1.13672 3.16016,1.6875 5.37891,1.6875 4.29297,0 7.51172,-1.86328 9.84375,-5.69141 l 0.20703,-0.34375 c -0.32031,0.40235 -0.66016,0.79297 -1.02344,1.16797 -2.16797,2.22656 -4.69922,3.35156 -7.53515,3.35156 -3.94922,0 -6.1211,-2.26171 -6.1211,-6.375 l 0.0117,-0.16406 c 0.83985,-5.074218 5.32422,-7.648436 13.32422,-7.648436 h 4.67969 l -0.42578,3.058594 c -0.21094,1.269531 -0.57422,2.46875 -1.07813,3.597656 l 0.0742,-0.121094 -0.5,8.61719 h 2.16797 c 0.0273,-2.35938 0.14062,-4.16406 0.35547,-5.50391 l 1.92187,-11.789061 c 0.47657,-3.199219 0.57813,-4.449219 0.57813,-4.933594 0,-1.734375 -0.3711,-3.160156 -1.09375,-4.238281 -1.08203,-1.628906 -3.52344,-2.453125 -7.27344,-2.453125 -1.70312,0 -3.44922,0.257812 -5.17969,0.765625 -1.68359,0.496094 -3.19922,1.316406 -4.49609,2.441406 -1.01172,0.875 -1.76953,1.929688 -2.28906,3.195312 l 1.94922,0.40625 c 1.52734,-3.511718 4.58203,-5.292968 9.09765,-5.292968 2.39063,0 4.11328,0.46875 5.26172,1.433594 1.17969,0.996093 1.78125,2.589843 1.78125,4.742187 0,1.046875 -0.0625,1.859375 -0.18359,2.476563 l -0.4375,2.082031 h -4.33594 c -4.76953,0 -8.30469,0.542969 -10.51172,1.621093 l -0.0352,0.01953 c -1.51171,0.664062 -2.82421,1.707031 -3.89843,3.09375 -1.07422,1.382812 -1.76172,2.890625 -2.04688,4.480468 m 7.21094,10.03516 c -2.66797,0 -4.90625,-0.72266 -6.65625,-2.14453 -1.8125,-1.47266 -2.73438,-3.56641 -2.73438,-6.22656 0,-0.39844 0.0547,-1.01563 0.17188,-1.94141 l 0.008,-0.0508 c 0.33985,-1.929692 1.16406,-3.742192 2.44531,-5.394536 1.27735,-1.652344 2.84766,-2.894531 4.66407,-3.699218 2.51953,-1.226563 6.24218,-1.820313 11.38281,-1.820313 h 2.6875 l 0.10156,-0.460937 c 0.0937,-0.46875 0.14063,-1.167969 0.14063,-2.070313 0,-1.527344 -0.35938,-2.597656 -1.0625,-3.191406 -0.75391,-0.632813 -2.08594,-0.957031 -3.95313,-0.957031 -3.95312,0 -6.40625,1.558593 -7.5,4.761718 l -0.29297,0.847656 -5.87109,-1.222656 0.30469,-1.054687 c 0.61328,-2.101563 1.71093,-3.851563 3.27734,-5.199219 1.51563,-1.316406 3.28125,-2.277344 5.25,-2.855469 1.91406,-0.5625 3.85156,-0.847656 5.75,-0.847656 4.47266,0 7.48438,1.128906 8.96094,3.355469 0.94922,1.410156 1.43359,3.21875 1.43359,5.363281 0,0.8125 -0.19922,2.53125 -0.60156,5.246094 l -1.92578,11.796873 c -0.22266,1.39454 -0.33203,3.48047 -0.33203,6.19532 v 1.01562 h -6.33985 l 0.19532,-3.38281 c -2.49219,2.61328 -5.67188,3.9375 -9.50391,3.9375"
         style="fill:#de020a;fill-opacity:1;fill-rule:nonzero;stroke:none" />
      <path
         id="path443"
         d="m 357.01953,100.43359 c 0,1.86329 0.76563,3.26563 2.28906,4.20704 1.52735,0.94921 3.25,1.41796 5.17188,1.41796 1.76953,0 3.41406,-0.40625 4.93359,-1.22656 1.51953,-0.82031 2.41016,-2.10937 2.66797,-3.86328 0,-1.449219 -0.43359,-2.480469 -1.29687,-3.09375 -0.86719,-0.613281 -1.99219,-1.066406 -3.38282,-1.359375 l -4.4375,-1 c -4.6289,-0.867187 -6.94531,-3.109375 -6.94531,-6.710937 0,-0.308594 0.0547,-0.820313 0.16016,-1.527344 0.48047,-2.9375 1.86328,-5.160156 4.16015,-6.65625 2.29688,-1.5 4.84766,-2.25 7.65625,-2.25 2.75,0 5.02344,0.609375 6.8125,1.828125 1.79297,1.21875 2.78125,3.121093 2.97266,5.703125 l -4.02344,0.910156 c -0.27344,-1.566406 -0.98437,-2.757812 -2.13672,-3.578125 -1.15234,-0.820313 -2.58203,-1.230469 -4.30078,-1.230469 -1.45703,0 -2.85937,0.375 -4.19922,1.117188 -1.33984,0.746094 -2.15234,1.859375 -2.42187,3.335937 0,1.507813 0.36328,2.542969 1.09375,3.113281 0.72656,0.566407 1.8125,1.011719 3.25781,1.339844 l 3.86328,0.796875 c 2.66797,0.5 4.48047,1.167969 5.4375,1.992188 1.56641,1.34375 2.34766,3.621093 2.34766,6.824221 -0.50391,3.17578 -2.03516,5.52734 -4.59766,7.05469 -2.5625,1.52734 -5.38281,2.29296 -8.46094,2.29296 -2.96875,0 -5.46484,-0.70312 -7.48828,-2.10546 -2.02343,-1.40235 -3.16015,-3.54297 -3.40234,-6.42188 z m 0,0"
         style="fill:#de2e30;fill-opacity:1;fill-rule:nonzero;stroke:none" />
      <path
         id="path445"
         d="m 353.86719,102.14063 c 0.35156,2.13281 1.29297,3.70703 2.86328,4.79296 1.83984,1.27735 4.16406,1.92188 6.91015,1.92188 2.87891,0 5.55079,-0.72266 7.94141,-2.14844 2.29297,-1.36719 3.63281,-3.41797 4.10156,-6.26562 -0.0117,-2.835941 -0.68359,-4.843754 -1.99609,-5.97266 -0.55859,-0.484375 -1.87109,-1.183594 -4.96094,-1.765625 l -3.8789,-0.800781 c -1.625,-0.367188 -2.82422,-0.867188 -3.67969,-1.535156 -0.98438,-0.765626 -1.48438,-2.082032 -1.48438,-3.910157 v -0.09375 l 0.0195,-0.08984 c 0.32813,-1.78125 1.3125,-3.140626 2.92579,-4.039063 1.48828,-0.824219 3.0664,-1.246094 4.6914,-1.246094 1.92188,0 3.57031,0.480469 4.89063,1.417969 1.09765,0.785156 1.86718,1.855469 2.29297,3.195312 l 2.16796,-0.488281 c -0.29687,-1.832031 -1.09765,-3.167969 -2.43359,-4.074219 -1.60937,-1.097656 -3.71094,-1.652343 -6.24219,-1.652343 -2.59765,0 -4.98437,0.699219 -7.10156,2.082031 -2.06641,1.347656 -3.28125,3.300781 -3.71094,5.96875 -0.125,0.8125 -0.15234,1.191406 -0.15234,1.367188 0,3.070312 2.00391,4.941406 6.12109,5.714843 l 0.0352,0.0078 4.4375,0.996094 c 1.50781,0.324218 2.76953,0.835937 3.74609,1.527343 1.14453,0.808594 1.72657,2.128907 1.72657,3.917969 l -0.0117,0.14453 c -0.3086,2.08203 -1.37891,3.63281 -3.19141,4.60938 -1.66016,0.89843 -3.48437,1.35156 -5.41406,1.35156 -2.10547,0 -4.02344,-0.52734 -5.70703,-1.57031 -1.48047,-0.91797 -2.375,-2.20703 -2.66407,-3.83985 z m 9.77343,8.74609 c -3.16796,0 -5.8789,-0.76953 -8.0664,-2.28906 -2.27344,-1.57422 -3.5625,-3.98828 -3.83594,-7.16797 l -0.0742,-0.89453 6.36719,-1.351566 v 1.249996 c 0,1.51954 0.57812,2.58204 1.8125,3.34766 1.35156,0.83984 2.91406,1.26563 4.63672,1.26563 1.58984,0 3.08984,-0.3711 4.45312,-1.10547 1.21094,-0.65625 1.91016,-1.65235 2.13282,-3.05078 -0.0117,-1.066411 -0.29688,-1.781255 -0.8711,-2.187505 -0.74609,-0.527344 -1.75781,-0.929687 -3.0039,-1.195313 l -4.42969,-0.996093 c -6.41016,-1.210938 -7.75781,-4.859375 -7.75781,-7.707031 0,-0.367188 0.0547,-0.902344 0.17578,-1.679688 0.52343,-3.230469 2.07422,-5.699219 4.60547,-7.355469 2.45312,-1.601562 5.21484,-2.414062 8.21093,-2.414062 2.94141,0 5.42969,0.675781 7.38282,2.003906 2.05468,1.398437 3.19921,3.570313 3.41406,6.46875 l 0.0664,0.871094 -5.91796,1.335937 -0.1836,-1.050781 c -0.22656,-1.304687 -0.79297,-2.261719 -1.72656,-2.921875 -0.98047,-0.703125 -2.19531,-1.042969 -3.71094,-1.042969 -1.27734,0 -2.52344,0.332031 -3.70703,0.988281 -1.04687,0.582032 -1.66797,1.414063 -1.89844,2.542969 0.008,0.792969 0.14063,1.785157 0.69922,2.21875 0.60547,0.472657 1.57031,0.859375 2.85938,1.148438 l 3.84375,0.796875 c 2.85937,0.535156 4.79687,1.265625 5.89843,2.21875 1.78907,1.535156 2.69922,4.089844 2.69922,7.589846 l -0.0156,0.16015 c -0.55078,3.46875 -2.25781,6.08204 -5.07813,7.76563 -2.70703,1.61719 -5.73047,2.4375 -8.98047,2.4375"
         style="fill:#de020a;fill-opacity:1;fill-rule:nonzero;stroke:none" />
    </g>
  </g>
</svg>
